<svg xmlns="http://www.w3.org/2000/svg" xmlns:xlink="http://www.w3.org/1999/xlink" version="1.1" width="1000" height="1000" viewBox="0 0 1000 1000" xml:space="preserve">
<desc>Created with Fabric.js 3.5.0</desc>
<defs>
</defs>
<rect x="0" y="0" width="100%" height="100%" fill="#ffffff"/>
<g transform="matrix(0 9.95 -9.95 0 497.0355 500.2322)" id="194759">
<g style="" vector-effect="non-scaling-stroke">
		<g transform="matrix(1 0 0 1 0 0)" clip-path="url(#CLIPPATH_107)">
<clipPath id="CLIPPATH_107">
	<rect transform="matrix(1 0 0 1 0 0)" id="clip0_1_2633" x="-50" y="-50" rx="0" ry="0" width="100" height="100"/>
</clipPath>
<rect style="stroke: none; stroke-width: 1; stroke-dasharray: none; stroke-linecap: butt; stroke-dashoffset: 0; stroke-linejoin: miter; stroke-miterlimit: 4; is-custom-font: none; font-file-url: none; fill: rgb(234,239,211); fill-rule: nonzero; opacity: 1;" x="-50" y="-50" rx="0" ry="0" width="100" height="100"/>
</g>
		<g transform="matrix(1 0 0 1 0.794 43.2891)" clip-path="url(#CLIPPATH_108)">
<clipPath id="CLIPPATH_108">
	<rect transform="matrix(1 0 0 1 -0.794 -43.2891)" id="clip0_1_2633" x="-50" y="-50" rx="0" ry="0" width="100" height="100"/>
</clipPath>
<path style="stroke: rgb(154,125,60); stroke-width: 0.5699; stroke-dasharray: none; stroke-linecap: butt; stroke-dashoffset: 0; stroke-linejoin: miter; stroke-miterlimit: 4; is-custom-font: none; font-file-url: none; fill: rgb(213,183,119); fill-rule: nonzero; opacity: 1;" transform=" translate(-50.794, -93.2891)" d="M 37.4247 90.1613 C 37.4247 89.8465 37.6799 89.5914 37.9946 89.5914 H 63.112 C 63.4098 89.5914 63.6574 89.8207 63.6803 90.1176 L 64.1615 96.3732 C 64.1873 96.709 63.9178 96.9938 63.5811 96.9866 L 37.9825 96.442 C 37.6725 96.4354 37.4247 96.1822 37.4247 95.8722 V 90.1613 Z" stroke-linecap="round"/>
</g>
		<g transform="matrix(1 0 0 1 11.6453 41.0162)" clip-path="url(#CLIPPATH_109)">
<clipPath id="CLIPPATH_109">
	<rect transform="matrix(1 0 0 1 -11.6452 -41.0161)" id="clip0_1_2633" x="-50" y="-50" rx="0" ry="0" width="100" height="100"/>
</clipPath>
<line style="stroke: rgb(154,125,60); stroke-width: 0.5699; stroke-dasharray: none; stroke-linecap: round; stroke-dashoffset: 0; stroke-linejoin: miter; stroke-miterlimit: 4; is-custom-font: none; font-file-url: none; fill: none; fill-rule: nonzero; opacity: 1;" x1="-1.994600000000002" y1="0" x2="1.994600000000002" y2="0"/>
</g>
		<g transform="matrix(1 0 0 1 3.6667 42.7259)" clip-path="url(#CLIPPATH_110)">
<clipPath id="CLIPPATH_110">
	<rect transform="matrix(1 0 0 1 -3.6667 -42.7258)" id="clip0_1_2633" x="-50" y="-50" rx="0" ry="0" width="100" height="100"/>
</clipPath>
<line style="stroke: rgb(154,125,60); stroke-width: 0.5699; stroke-dasharray: none; stroke-linecap: round; stroke-dashoffset: 0; stroke-linejoin: miter; stroke-miterlimit: 4; is-custom-font: none; font-file-url: none; fill: none; fill-rule: nonzero; opacity: 1;" x1="-1.9945999999999984" y1="0" x2="1.9945999999999984" y2="0"/>
</g>
		<g transform="matrix(1 0 0 1 -4.8816 41.5861)" clip-path="url(#CLIPPATH_111)">
<clipPath id="CLIPPATH_111">
	<rect transform="matrix(1 0 0 1 4.8817 -41.586)" id="clip0_1_2633" x="-50" y="-50" rx="0" ry="0" width="100" height="100"/>
</clipPath>
<line style="stroke: rgb(154,125,60); stroke-width: 0.5699; stroke-dasharray: none; stroke-linecap: round; stroke-dashoffset: 0; stroke-linejoin: miter; stroke-miterlimit: 4; is-custom-font: none; font-file-url: none; fill: none; fill-rule: nonzero; opacity: 1;" x1="-1.994600000000002" y1="0" x2="1.994600000000002" y2="0"/>
</g>
		<g transform="matrix(1 0 0 1 -10.5806 45.0055)" clip-path="url(#CLIPPATH_112)">
<clipPath id="CLIPPATH_112">
	<rect transform="matrix(1 0 0 1 10.5806 -45.0054)" id="clip0_1_2633" x="-50" y="-50" rx="0" ry="0" width="100" height="100"/>
</clipPath>
<line style="stroke: rgb(154,125,60); stroke-width: 0.5699; stroke-dasharray: none; stroke-linecap: round; stroke-dashoffset: 0; stroke-linejoin: miter; stroke-miterlimit: 4; is-custom-font: none; font-file-url: none; fill: none; fill-rule: nonzero; opacity: 1;" x1="-1.99465" y1="0" x2="1.99465" y2="0"/>
</g>
		<g transform="matrix(1 0 0 1 0.794 -16.7109)" clip-path="url(#CLIPPATH_113)">
<clipPath id="CLIPPATH_113">
	<rect transform="matrix(1 0 0 1 -0.794 16.7109)" id="clip0_1_2633" x="-50" y="-50" rx="0" ry="0" width="100" height="100"/>
</clipPath>
<path style="stroke: rgb(154,125,60); stroke-width: 0.5699; stroke-dasharray: none; stroke-linecap: butt; stroke-dashoffset: 0; stroke-linejoin: miter; stroke-miterlimit: 4; is-custom-font: none; font-file-url: none; fill: rgb(213,183,119); fill-rule: nonzero; opacity: 1;" transform=" translate(-50.794, -33.2891)" d="M 37.4247 30.1613 C 37.4247 29.8465 37.6799 29.5914 37.9946 29.5914 H 63.112 C 63.4098 29.5914 63.6574 29.8207 63.6803 30.1176 L 64.1615 36.3732 C 64.1873 36.709 63.9178 36.9938 63.5811 36.9866 L 37.9825 36.442 C 37.6725 36.4354 37.4247 36.1822 37.4247 35.8722 V 30.1613 Z" stroke-linecap="round"/>
</g>
		<g transform="matrix(1 0 0 1 11.6453 -18.9839)" clip-path="url(#CLIPPATH_114)">
<clipPath id="CLIPPATH_114">
	<rect transform="matrix(1 0 0 1 -11.6452 18.9839)" id="clip0_1_2633" x="-50" y="-50" rx="0" ry="0" width="100" height="100"/>
</clipPath>
<line style="stroke: rgb(154,125,60); stroke-width: 0.5699; stroke-dasharray: none; stroke-linecap: round; stroke-dashoffset: 0; stroke-linejoin: miter; stroke-miterlimit: 4; is-custom-font: none; font-file-url: none; fill: none; fill-rule: nonzero; opacity: 1;" x1="-1.994600000000002" y1="0" x2="1.994600000000002" y2="0"/>
</g>
		<g transform="matrix(1 0 0 1 3.6667 -17.2742)" clip-path="url(#CLIPPATH_115)">
<clipPath id="CLIPPATH_115">
	<rect transform="matrix(1 0 0 1 -3.6667 17.2742)" id="clip0_1_2633" x="-50" y="-50" rx="0" ry="0" width="100" height="100"/>
</clipPath>
<line style="stroke: rgb(154,125,60); stroke-width: 0.5699; stroke-dasharray: none; stroke-linecap: round; stroke-dashoffset: 0; stroke-linejoin: miter; stroke-miterlimit: 4; is-custom-font: none; font-file-url: none; fill: none; fill-rule: nonzero; opacity: 1;" x1="-1.9945999999999984" y1="0" x2="1.9945999999999984" y2="0"/>
</g>
		<g transform="matrix(1 0 0 1 -4.8816 -18.4139)" clip-path="url(#CLIPPATH_116)">
<clipPath id="CLIPPATH_116">
	<rect transform="matrix(1 0 0 1 4.8817 18.414)" id="clip0_1_2633" x="-50" y="-50" rx="0" ry="0" width="100" height="100"/>
</clipPath>
<line style="stroke: rgb(154,125,60); stroke-width: 0.5699; stroke-dasharray: none; stroke-linecap: round; stroke-dashoffset: 0; stroke-linejoin: miter; stroke-miterlimit: 4; is-custom-font: none; font-file-url: none; fill: none; fill-rule: nonzero; opacity: 1;" x1="-1.994600000000002" y1="0" x2="1.994600000000002" y2="0"/>
</g>
		<g transform="matrix(1 0 0 1 -10.5806 -14.9946)" clip-path="url(#CLIPPATH_117)">
<clipPath id="CLIPPATH_117">
	<rect transform="matrix(1 0 0 1 10.5806 14.9946)" id="clip0_1_2633" x="-50" y="-50" rx="0" ry="0" width="100" height="100"/>
</clipPath>
<line style="stroke: rgb(154,125,60); stroke-width: 0.5699; stroke-dasharray: none; stroke-linecap: round; stroke-dashoffset: 0; stroke-linejoin: miter; stroke-miterlimit: 4; is-custom-font: none; font-file-url: none; fill: none; fill-rule: nonzero; opacity: 1;" x1="-1.99465" y1="0" x2="1.99465" y2="0"/>
</g>
		<g transform="matrix(1 0 0 1 0.9591 31.8982)" clip-path="url(#CLIPPATH_118)">
<clipPath id="CLIPPATH_118">
	<rect transform="matrix(1 0 0 1 -0.9592 -31.8983)" id="clip0_1_2633" x="-50" y="-50" rx="0" ry="0" width="100" height="100"/>
</clipPath>
<path style="stroke: rgb(154,125,60); stroke-width: 0.5699; stroke-dasharray: none; stroke-linecap: butt; stroke-dashoffset: 0; stroke-linejoin: miter; stroke-miterlimit: 4; is-custom-font: none; font-file-url: none; fill: rgb(213,183,119); fill-rule: nonzero; opacity: 1;" transform=" translate(-50.9592, -81.8983)" d="M 37.7339 79.3444 C 37.7206 79.0255 37.9719 78.7578 38.291 78.7509 L 63.6028 78.2066 C 63.9316 78.1995 64.1981 78.4715 64.1844 78.8001 L 63.947 84.498 C 63.9345 84.7984 63.6907 85.0374 63.3901 85.044 L 38.5533 85.5899 C 38.243 85.5967 37.9843 85.3539 37.9714 85.0438 L 37.7339 79.3444 Z" stroke-linecap="round"/>
</g>
		<g transform="matrix(1 0 0 1 -10.0107 30.1883)" clip-path="url(#CLIPPATH_119)">
<clipPath id="CLIPPATH_119">
	<rect transform="matrix(1 0 0 1 10.0108 -30.1882)" id="clip0_1_2633" x="-50" y="-50" rx="0" ry="0" width="100" height="100"/>
</clipPath>
<line style="stroke: rgb(154,125,60); stroke-width: 0.5699; stroke-dasharray: none; stroke-linecap: round; stroke-dashoffset: 0; stroke-linejoin: miter; stroke-miterlimit: 4; is-custom-font: none; font-file-url: none; fill: none; fill-rule: nonzero; opacity: 1;" x1="-1.994600000000002" y1="0" x2="1.994600000000002" y2="0"/>
</g>
		<g transform="matrix(1 0 0 1 -3.172 33.0376)" clip-path="url(#CLIPPATH_120)">
<clipPath id="CLIPPATH_120">
	<rect transform="matrix(1 0 0 1 3.172 -33.0376)" id="clip0_1_2633" x="-50" y="-50" rx="0" ry="0" width="100" height="100"/>
</clipPath>
<line style="stroke: rgb(154,125,60); stroke-width: 0.5699; stroke-dasharray: none; stroke-linecap: round; stroke-dashoffset: 0; stroke-linejoin: miter; stroke-miterlimit: 4; is-custom-font: none; font-file-url: none; fill: none; fill-rule: nonzero; opacity: 1;" x1="-1.99465" y1="0" x2="1.99465" y2="0"/>
</g>
		<g transform="matrix(1 0 0 1 6.5161 29.6183)" clip-path="url(#CLIPPATH_121)">
<clipPath id="CLIPPATH_121">
	<rect transform="matrix(1 0 0 1 -6.5161 -29.6183)" id="clip0_1_2633" x="-50" y="-50" rx="0" ry="0" width="100" height="100"/>
</clipPath>
<line style="stroke: rgb(154,125,60); stroke-width: 0.5699; stroke-dasharray: none; stroke-linecap: round; stroke-dashoffset: 0; stroke-linejoin: miter; stroke-miterlimit: 4; is-custom-font: none; font-file-url: none; fill: none; fill-rule: nonzero; opacity: 1;" x1="-1.9945999999999984" y1="0" x2="1.9945999999999984" y2="0"/>
</g>
		<g transform="matrix(1 0 0 1 11.6452 33.0376)" clip-path="url(#CLIPPATH_122)">
<clipPath id="CLIPPATH_122">
	<rect transform="matrix(1 0 0 1 -11.6452 -33.0376)" id="clip0_1_2633" x="-50" y="-50" rx="0" ry="0" width="100" height="100"/>
</clipPath>
<line style="stroke: rgb(154,125,60); stroke-width: 0.5699; stroke-dasharray: none; stroke-linecap: round; stroke-dashoffset: 0; stroke-linejoin: miter; stroke-miterlimit: 4; is-custom-font: none; font-file-url: none; fill: none; fill-rule: nonzero; opacity: 1;" x1="-1.99465" y1="0" x2="1.99465" y2="0"/>
</g>
		<g transform="matrix(1 0 0 1 0.9591 -30.1018)" clip-path="url(#CLIPPATH_123)">
<clipPath id="CLIPPATH_123">
	<rect transform="matrix(1 0 0 1 -0.9592 30.1017)" id="clip0_1_2633" x="-50" y="-50" rx="0" ry="0" width="100" height="100"/>
</clipPath>
<path style="stroke: rgb(154,125,60); stroke-width: 0.5699; stroke-dasharray: none; stroke-linecap: butt; stroke-dashoffset: 0; stroke-linejoin: miter; stroke-miterlimit: 4; is-custom-font: none; font-file-url: none; fill: rgb(213,183,119); fill-rule: nonzero; opacity: 1;" transform=" translate(-50.9592, -19.8983)" d="M 37.7339 17.3444 C 37.7206 17.0255 37.9719 16.7578 38.291 16.7509 L 63.6028 16.2066 C 63.9316 16.1995 64.1981 16.4715 64.1844 16.8001 L 63.947 22.498 C 63.9345 22.7984 63.6907 23.0374 63.3901 23.044 L 38.5533 23.5899 C 38.243 23.5967 37.9843 23.3539 37.9714 23.0438 L 37.7339 17.3444 Z" stroke-linecap="round"/>
</g>
		<g transform="matrix(1 0 0 1 -10.0107 -31.8117)" clip-path="url(#CLIPPATH_124)">
<clipPath id="CLIPPATH_124">
	<rect transform="matrix(1 0 0 1 10.0108 31.8118)" id="clip0_1_2633" x="-50" y="-50" rx="0" ry="0" width="100" height="100"/>
</clipPath>
<line style="stroke: rgb(154,125,60); stroke-width: 0.5699; stroke-dasharray: none; stroke-linecap: round; stroke-dashoffset: 0; stroke-linejoin: miter; stroke-miterlimit: 4; is-custom-font: none; font-file-url: none; fill: none; fill-rule: nonzero; opacity: 1;" x1="-1.994600000000002" y1="0" x2="1.994600000000002" y2="0"/>
</g>
		<g transform="matrix(1 0 0 1 -3.172 -28.9624)" clip-path="url(#CLIPPATH_125)">
<clipPath id="CLIPPATH_125">
	<rect transform="matrix(1 0 0 1 3.172 28.9624)" id="clip0_1_2633" x="-50" y="-50" rx="0" ry="0" width="100" height="100"/>
</clipPath>
<line style="stroke: rgb(154,125,60); stroke-width: 0.5699; stroke-dasharray: none; stroke-linecap: round; stroke-dashoffset: 0; stroke-linejoin: miter; stroke-miterlimit: 4; is-custom-font: none; font-file-url: none; fill: none; fill-rule: nonzero; opacity: 1;" x1="-1.99465" y1="0" x2="1.99465" y2="0"/>
</g>
		<g transform="matrix(1 0 0 1 6.5161 -32.3817)" clip-path="url(#CLIPPATH_126)">
<clipPath id="CLIPPATH_126">
	<rect transform="matrix(1 0 0 1 -6.5161 32.3817)" id="clip0_1_2633" x="-50" y="-50" rx="0" ry="0" width="100" height="100"/>
</clipPath>
<line style="stroke: rgb(154,125,60); stroke-width: 0.5699; stroke-dasharray: none; stroke-linecap: round; stroke-dashoffset: 0; stroke-linejoin: miter; stroke-miterlimit: 4; is-custom-font: none; font-file-url: none; fill: none; fill-rule: nonzero; opacity: 1;" x1="-1.9945999999999984" y1="0" x2="1.9945999999999984" y2="0"/>
</g>
		<g transform="matrix(1 0 0 1 11.6452 -28.9624)" clip-path="url(#CLIPPATH_127)">
<clipPath id="CLIPPATH_127">
	<rect transform="matrix(1 0 0 1 -11.6452 28.9624)" id="clip0_1_2633" x="-50" y="-50" rx="0" ry="0" width="100" height="100"/>
</clipPath>
<line style="stroke: rgb(154,125,60); stroke-width: 0.5699; stroke-dasharray: none; stroke-linecap: round; stroke-dashoffset: 0; stroke-linejoin: miter; stroke-miterlimit: 4; is-custom-font: none; font-file-url: none; fill: none; fill-rule: nonzero; opacity: 1;" x1="-1.99465" y1="0" x2="1.99465" y2="0"/>
</g>
		<g transform="matrix(1 0 0 1 -0.7506 21.0703)" clip-path="url(#CLIPPATH_128)">
<clipPath id="CLIPPATH_128">
	<rect transform="matrix(1 0 0 1 0.7505 -21.0703)" id="clip0_1_2633" x="-50" y="-50" rx="0" ry="0" width="100" height="100"/>
</clipPath>
<path style="stroke: rgb(154,125,60); stroke-width: 0.5699; stroke-dasharray: none; stroke-linecap: butt; stroke-dashoffset: 0; stroke-linejoin: miter; stroke-miterlimit: 4; is-custom-font: none; font-file-url: none; fill: rgb(213,183,119); fill-rule: nonzero; opacity: 1;" transform=" translate(-49.2495, -71.0703)" d="M 36.0242 68.5165 C 36.0109 68.1975 36.2622 67.9299 36.5814 67.923 L 61.8931 67.3787 C 62.2219 67.3716 62.4884 67.6435 62.4747 67.9721 L 62.2373 73.67 C 62.2248 73.9704 61.981 74.2095 61.6804 74.2161 L 36.8436 74.7619 C 36.5333 74.7687 36.2746 74.526 36.2617 74.2159 L 36.0242 68.5165 Z" stroke-linecap="round"/>
</g>
		<g transform="matrix(1 0 0 1 9.9356 18.7904)" clip-path="url(#CLIPPATH_129)">
<clipPath id="CLIPPATH_129">
	<rect transform="matrix(1 0 0 1 -9.9355 -18.7903)" id="clip0_1_2633" x="-50" y="-50" rx="0" ry="0" width="100" height="100"/>
</clipPath>
<line style="stroke: rgb(154,125,60); stroke-width: 0.5699; stroke-dasharray: none; stroke-linecap: round; stroke-dashoffset: 0; stroke-linejoin: miter; stroke-miterlimit: 4; is-custom-font: none; font-file-url: none; fill: none; fill-rule: nonzero; opacity: 1;" x1="-1.994600000000002" y1="0" x2="1.994600000000002" y2="0"/>
</g>
		<g transform="matrix(1 0 0 1 0.8172 21.6398)" clip-path="url(#CLIPPATH_130)">
<clipPath id="CLIPPATH_130">
	<rect transform="matrix(1 0 0 1 -0.8172 -21.6398)" id="clip0_1_2633" x="-50" y="-50" rx="0" ry="0" width="100" height="100"/>
</clipPath>
<line style="stroke: rgb(154,125,60); stroke-width: 0.5699; stroke-dasharray: none; stroke-linecap: round; stroke-dashoffset: 0; stroke-linejoin: miter; stroke-miterlimit: 4; is-custom-font: none; font-file-url: none; fill: none; fill-rule: nonzero; opacity: 1;" x1="-1.9945999999999984" y1="0" x2="1.9945999999999984" y2="0"/>
</g>
		<g transform="matrix(1 0 0 1 -7.1612 19.9301)" clip-path="url(#CLIPPATH_131)">
<clipPath id="CLIPPATH_131">
	<rect transform="matrix(1 0 0 1 7.1613 -19.9301)" id="clip0_1_2633" x="-50" y="-50" rx="0" ry="0" width="100" height="100"/>
</clipPath>
<line style="stroke: rgb(154,125,60); stroke-width: 0.5699; stroke-dasharray: none; stroke-linecap: round; stroke-dashoffset: 0; stroke-linejoin: miter; stroke-miterlimit: 4; is-custom-font: none; font-file-url: none; fill: none; fill-rule: nonzero; opacity: 1;" x1="-1.994600000000002" y1="0" x2="1.994600000000002" y2="0"/>
</g>
		<g transform="matrix(1 0 0 1 -11.7204 23.3495)" clip-path="url(#CLIPPATH_132)">
<clipPath id="CLIPPATH_132">
	<rect transform="matrix(1 0 0 1 11.7204 -23.3495)" id="clip0_1_2633" x="-50" y="-50" rx="0" ry="0" width="100" height="100"/>
</clipPath>
<line style="stroke: rgb(154,125,60); stroke-width: 0.5699; stroke-dasharray: none; stroke-linecap: round; stroke-dashoffset: 0; stroke-linejoin: miter; stroke-miterlimit: 4; is-custom-font: none; font-file-url: none; fill: none; fill-rule: nonzero; opacity: 1;" x1="-1.99465" y1="0" x2="1.99465" y2="0"/>
</g>
		<g transform="matrix(1 0 0 1 -0.7506 -41.9297)" clip-path="url(#CLIPPATH_133)">
<clipPath id="CLIPPATH_133">
	<rect transform="matrix(1 0 0 1 0.7505 41.9297)" id="clip0_1_2633" x="-50" y="-50" rx="0" ry="0" width="100" height="100"/>
</clipPath>
<path style="stroke: rgb(154,125,60); stroke-width: 0.5699; stroke-dasharray: none; stroke-linecap: butt; stroke-dashoffset: 0; stroke-linejoin: miter; stroke-miterlimit: 4; is-custom-font: none; font-file-url: none; fill: rgb(213,183,119); fill-rule: nonzero; opacity: 1;" transform=" translate(-49.2495, -8.0703)" d="M 36.0242 5.51648 C 36.0109 5.19752 36.2622 4.92985 36.5814 4.92299 L 61.8931 4.37865 C 62.2219 4.37158 62.4884 4.64353 62.4747 4.97214 L 62.2373 10.67 C 62.2248 10.9704 61.981 11.2095 61.6804 11.2161 L 36.8436 11.7619 C 36.5333 11.7687 36.2746 11.526 36.2617 11.2159 L 36.0242 5.51648 Z" stroke-linecap="round"/>
</g>
		<g transform="matrix(1 0 0 1 9.9356 -44.2096)" clip-path="url(#CLIPPATH_134)">
<clipPath id="CLIPPATH_134">
	<rect transform="matrix(1 0 0 1 -9.9355 44.2097)" id="clip0_1_2633" x="-50" y="-50" rx="0" ry="0" width="100" height="100"/>
</clipPath>
<line style="stroke: rgb(154,125,60); stroke-width: 0.5699; stroke-dasharray: none; stroke-linecap: round; stroke-dashoffset: 0; stroke-linejoin: miter; stroke-miterlimit: 4; is-custom-font: none; font-file-url: none; fill: none; fill-rule: nonzero; opacity: 1;" x1="-1.994600000000002" y1="0" x2="1.994600000000002" y2="0"/>
</g>
		<g transform="matrix(1 0 0 1 0.8172 -41.3603)" clip-path="url(#CLIPPATH_135)">
<clipPath id="CLIPPATH_135">
	<rect transform="matrix(1 0 0 1 -0.8172 41.3602)" id="clip0_1_2633" x="-50" y="-50" rx="0" ry="0" width="100" height="100"/>
</clipPath>
<line style="stroke: rgb(154,125,60); stroke-width: 0.5699; stroke-dasharray: none; stroke-linecap: round; stroke-dashoffset: 0; stroke-linejoin: miter; stroke-miterlimit: 4; is-custom-font: none; font-file-url: none; fill: none; fill-rule: nonzero; opacity: 1;" x1="-1.9945999999999984" y1="0" x2="1.9945999999999984" y2="0"/>
</g>
		<g transform="matrix(1 0 0 1 -7.1612 -43.0698)" clip-path="url(#CLIPPATH_136)">
<clipPath id="CLIPPATH_136">
	<rect transform="matrix(1 0 0 1 7.1613 43.0699)" id="clip0_1_2633" x="-50" y="-50" rx="0" ry="0" width="100" height="100"/>
</clipPath>
<line style="stroke: rgb(154,125,60); stroke-width: 0.5699; stroke-dasharray: none; stroke-linecap: round; stroke-dashoffset: 0; stroke-linejoin: miter; stroke-miterlimit: 4; is-custom-font: none; font-file-url: none; fill: none; fill-rule: nonzero; opacity: 1;" x1="-1.994600000000002" y1="0" x2="1.994600000000002" y2="0"/>
</g>
		<g transform="matrix(1 0 0 1 -11.7204 -39.6504)" clip-path="url(#CLIPPATH_137)">
<clipPath id="CLIPPATH_137">
	<rect transform="matrix(1 0 0 1 11.7204 39.6505)" id="clip0_1_2633" x="-50" y="-50" rx="0" ry="0" width="100" height="100"/>
</clipPath>
<line style="stroke: rgb(154,125,60); stroke-width: 0.5699; stroke-dasharray: none; stroke-linecap: round; stroke-dashoffset: 0; stroke-linejoin: miter; stroke-miterlimit: 4; is-custom-font: none; font-file-url: none; fill: none; fill-rule: nonzero; opacity: 1;" x1="-1.99465" y1="0" x2="1.99465" y2="0"/>
</g>
		<g transform="matrix(1 0 0 1 0.3639 8.5257)" clip-path="url(#CLIPPATH_138)">
<clipPath id="CLIPPATH_138">
	<rect transform="matrix(1 0 0 1 -0.3639 -8.5257)" id="clip0_1_2633" x="-50" y="-50" rx="0" ry="0" width="100" height="100"/>
</clipPath>
<path style="stroke: rgb(154,125,60); stroke-width: 0.5699; stroke-dasharray: none; stroke-linecap: butt; stroke-dashoffset: 0; stroke-linejoin: miter; stroke-miterlimit: 4; is-custom-font: none; font-file-url: none; fill: rgb(213,183,119); fill-rule: nonzero; opacity: 1;" transform=" translate(-50.3639, -58.5257)" d="M 36.9946 55.3978 C 36.9946 55.0831 37.2498 54.828 37.5645 54.828 H 62.6819 C 62.9797 54.828 63.2273 55.0572 63.2502 55.3541 L 63.7314 61.6097 C 63.7572 61.9455 63.4877 62.2304 63.151 62.2232 L 37.5524 61.6785 C 37.2424 61.6719 36.9946 61.4188 36.9946 61.1088 V 55.3978 Z" stroke-linecap="round"/>
</g>
		<g transform="matrix(1 0 0 1 -11.0107 5.6829)" clip-path="url(#CLIPPATH_139)">
<clipPath id="CLIPPATH_139">
	<rect transform="matrix(1 0 0 1 11.0108 -5.6828)" id="clip0_1_2633" x="-50" y="-50" rx="0" ry="0" width="100" height="100"/>
</clipPath>
<line style="stroke: rgb(154,125,60); stroke-width: 0.5699; stroke-dasharray: none; stroke-linecap: round; stroke-dashoffset: 0; stroke-linejoin: miter; stroke-miterlimit: 4; is-custom-font: none; font-file-url: none; fill: none; fill-rule: nonzero; opacity: 1;" x1="-1.99465" y1="0" x2="1.99465" y2="0"/>
</g>
		<g transform="matrix(1 0 0 1 -7.0214 9.6721)" clip-path="url(#CLIPPATH_140)">
<clipPath id="CLIPPATH_140">
	<rect transform="matrix(1 0 0 1 7.0215 -9.672)" id="clip0_1_2633" x="-50" y="-50" rx="0" ry="0" width="100" height="100"/>
</clipPath>
<line style="stroke: rgb(154,125,60); stroke-width: 0.5699; stroke-dasharray: none; stroke-linecap: round; stroke-dashoffset: 0; stroke-linejoin: miter; stroke-miterlimit: 4; is-custom-font: none; font-file-url: none; fill: none; fill-rule: nonzero; opacity: 1;" x1="-1.994600000000002" y1="0" x2="1.994600000000002" y2="0"/>
</g>
		<g transform="matrix(1 0 0 1 2.6667 6.8227)" clip-path="url(#CLIPPATH_141)">
<clipPath id="CLIPPATH_141">
	<rect transform="matrix(1 0 0 1 -2.6666 -6.8226)" id="clip0_1_2633" x="-50" y="-50" rx="0" ry="0" width="100" height="100"/>
</clipPath>
<line style="stroke: rgb(154,125,60); stroke-width: 0.5699; stroke-dasharray: none; stroke-linecap: round; stroke-dashoffset: 0; stroke-linejoin: miter; stroke-miterlimit: 4; is-custom-font: none; font-file-url: none; fill: none; fill-rule: nonzero; opacity: 1;" x1="-1.99465" y1="0" x2="1.99465" y2="0"/>
</g>
		<g transform="matrix(1 0 0 1 11.2151 9.1022)" clip-path="url(#CLIPPATH_142)">
<clipPath id="CLIPPATH_142">
	<rect transform="matrix(1 0 0 1 -11.215 -9.1022)" id="clip0_1_2633" x="-50" y="-50" rx="0" ry="0" width="100" height="100"/>
</clipPath>
<line style="stroke: rgb(154,125,60); stroke-width: 0.5699; stroke-dasharray: none; stroke-linecap: round; stroke-dashoffset: 0; stroke-linejoin: miter; stroke-miterlimit: 4; is-custom-font: none; font-file-url: none; fill: none; fill-rule: nonzero; opacity: 1;" x1="-1.99465" y1="0" x2="1.99465" y2="0"/>
</g>
		<g transform="matrix(1 0 0 1 0.2584 -4.7231)" clip-path="url(#CLIPPATH_143)">
<clipPath id="CLIPPATH_143">
	<rect transform="matrix(1 0 0 1 -0.2584 4.7231)" id="clip0_1_2633" x="-50" y="-50" rx="0" ry="0" width="100" height="100"/>
</clipPath>
<path style="stroke: rgb(154,125,60); stroke-width: 0.5699; stroke-dasharray: none; stroke-linecap: butt; stroke-dashoffset: 0; stroke-linejoin: miter; stroke-miterlimit: 4; is-custom-font: none; font-file-url: none; fill: rgb(213,183,119); fill-rule: nonzero; opacity: 1;" transform=" translate(-50.2584, -45.2769)" d="M 37.539 42.8217 C 37.5533 42.5203 37.8001 42.2823 38.1019 42.279 L 62.6335 42.0064 C 62.9507 42.0029 63.2097 42.259 63.2097 42.5763 V 47.9776 C 63.2097 48.2948 62.9507 48.5509 62.6335 48.5474 L 37.8707 48.2753 C 37.5478 48.2718 37.2923 48.0009 37.3077 47.6783 L 37.539 42.8217 Z" stroke-linecap="round"/>
</g>
		<g transform="matrix(1 0 0 1 -10.4408 -6.0053)" clip-path="url(#CLIPPATH_144)">
<clipPath id="CLIPPATH_144">
	<rect transform="matrix(1 0 0 1 10.4408 6.0054)" id="clip0_1_2633" x="-50" y="-50" rx="0" ry="0" width="100" height="100"/>
</clipPath>
<line style="stroke: rgb(154,125,60); stroke-width: 0.5699; stroke-dasharray: none; stroke-linecap: round; stroke-dashoffset: 0; stroke-linejoin: miter; stroke-miterlimit: 4; is-custom-font: none; font-file-url: none; fill: none; fill-rule: nonzero; opacity: 1;" x1="-1.99465" y1="0" x2="1.99465" y2="0"/>
</g>
		<g transform="matrix(1 0 0 1 11.2151 -3.1559)" clip-path="url(#CLIPPATH_145)">
<clipPath id="CLIPPATH_145">
	<rect transform="matrix(1 0 0 1 -11.215 3.1559)" id="clip0_1_2633" x="-50" y="-50" rx="0" ry="0" width="100" height="100"/>
</clipPath>
<line style="stroke: rgb(154,125,60); stroke-width: 0.5699; stroke-dasharray: none; stroke-linecap: round; stroke-dashoffset: 0; stroke-linejoin: miter; stroke-miterlimit: 4; is-custom-font: none; font-file-url: none; fill: none; fill-rule: nonzero; opacity: 1;" x1="-1.99465" y1="0" x2="1.99465" y2="0"/>
</g>
		<g transform="matrix(1 0 0 1 -6.4516 -3.1559)" clip-path="url(#CLIPPATH_146)">
<clipPath id="CLIPPATH_146">
	<rect transform="matrix(1 0 0 1 6.4516 3.1559)" id="clip0_1_2633" x="-50" y="-50" rx="0" ry="0" width="100" height="100"/>
</clipPath>
<line style="stroke: rgb(154,125,60); stroke-width: 0.5699; stroke-dasharray: none; stroke-linecap: round; stroke-dashoffset: 0; stroke-linejoin: miter; stroke-miterlimit: 4; is-custom-font: none; font-file-url: none; fill: none; fill-rule: nonzero; opacity: 1;" x1="-1.9945999999999984" y1="0" x2="1.9945999999999984" y2="0"/>
</g>
		<g transform="matrix(1 0 0 1 4.9463 -5.4354)" clip-path="url(#CLIPPATH_147)">
<clipPath id="CLIPPATH_147">
	<rect transform="matrix(1 0 0 1 -4.9462 5.4355)" id="clip0_1_2633" x="-50" y="-50" rx="0" ry="0" width="100" height="100"/>
</clipPath>
<line style="stroke: rgb(154,125,60); stroke-width: 0.5699; stroke-dasharray: none; stroke-linecap: round; stroke-dashoffset: 0; stroke-linejoin: miter; stroke-miterlimit: 4; is-custom-font: none; font-file-url: none; fill: none; fill-rule: nonzero; opacity: 1;" x1="-1.99465" y1="0" x2="1.99465" y2="0"/>
</g>
		<g transform="matrix(1 0 0 1 -9 0)" clip-path="url(#CLIPPATH_148)">
<clipPath id="CLIPPATH_148">
	<rect transform="matrix(1 0 0 1 9 0)" id="clip0_1_2633" x="-50" y="-50" rx="0" ry="0" width="100" height="100"/>
</clipPath>
<rect style="stroke: none; stroke-width: 1; stroke-dasharray: none; stroke-linecap: butt; stroke-dashoffset: 0; stroke-linejoin: miter; stroke-miterlimit: 4; is-custom-font: none; font-file-url: none; fill: rgb(209,214,194); fill-rule: nonzero; opacity: 1;" x="-1" y="-50" rx="0" ry="0" width="2" height="100"/>
</g>
		<g transform="matrix(1 0 0 1 -9 0)" clip-path="url(#CLIPPATH_149)">
<clipPath id="CLIPPATH_149">
	<rect transform="matrix(1 0 0 1 9 0)" id="clip0_1_2633" x="-50" y="-50" rx="0" ry="0" width="100" height="100"/>
</clipPath>
<rect style="stroke: rgb(142,144,147); stroke-width: 1; stroke-dasharray: none; stroke-linecap: butt; stroke-dashoffset: 0; stroke-linejoin: miter; stroke-miterlimit: 4; is-custom-font: none; font-file-url: none; fill: none; fill-rule: nonzero; opacity: 1;" x="-1.5" y="-50.5" rx="0" ry="0" width="3" height="101"/>
</g>
		<g transform="matrix(1 0 0 1 9 0)" clip-path="url(#CLIPPATH_150)">
<clipPath id="CLIPPATH_150">
	<rect transform="matrix(1 0 0 1 -9 0)" id="clip0_1_2633" x="-50" y="-50" rx="0" ry="0" width="100" height="100"/>
</clipPath>
<rect style="stroke: none; stroke-width: 1; stroke-dasharray: none; stroke-linecap: butt; stroke-dashoffset: 0; stroke-linejoin: miter; stroke-miterlimit: 4; is-custom-font: none; font-file-url: none; fill: rgb(209,214,194); fill-rule: nonzero; opacity: 1;" x="-1" y="-50" rx="0" ry="0" width="2" height="100"/>
</g>
		<g transform="matrix(1 0 0 1 9 0)" clip-path="url(#CLIPPATH_151)">
<clipPath id="CLIPPATH_151">
	<rect transform="matrix(1 0 0 1 -9 0)" id="clip0_1_2633" x="-50" y="-50" rx="0" ry="0" width="100" height="100"/>
</clipPath>
<rect style="stroke: rgb(142,144,147); stroke-width: 1; stroke-dasharray: none; stroke-linecap: butt; stroke-dashoffset: 0; stroke-linejoin: miter; stroke-miterlimit: 4; is-custom-font: none; font-file-url: none; fill: none; fill-rule: nonzero; opacity: 1;" x="-1.5" y="-50.5" rx="0" ry="0" width="3" height="101"/>
</g>
		<g transform="matrix(1 0 0 1 -37.5 -26)" clip-path="url(#CLIPPATH_152)">
<clipPath id="CLIPPATH_152">
	<rect transform="matrix(1 0 0 1 37.5 26)" id="clip0_1_2633" x="-50" y="-50" rx="0" ry="0" width="100" height="100"/>
</clipPath>
<ellipse style="stroke: none; stroke-width: 1; stroke-dasharray: none; stroke-linecap: butt; stroke-dashoffset: 0; stroke-linejoin: miter; stroke-miterlimit: 4; is-custom-font: none; font-file-url: none; fill: rgb(230,229,195); fill-rule: nonzero; opacity: 1;" cx="0" cy="0" rx="8.5" ry="9"/>
</g>
		<g transform="matrix(1 0 0 1 36 -25)" clip-path="url(#CLIPPATH_153)">
<clipPath id="CLIPPATH_153">
	<rect transform="matrix(1 0 0 1 -36 25)" id="clip0_1_2633" x="-50" y="-50" rx="0" ry="0" width="100" height="100"/>
</clipPath>
<ellipse style="stroke: none; stroke-width: 1; stroke-dasharray: none; stroke-linecap: butt; stroke-dashoffset: 0; stroke-linejoin: miter; stroke-miterlimit: 4; is-custom-font: none; font-file-url: none; fill: rgb(230,229,195); fill-rule: nonzero; opacity: 1;" cx="0" cy="0" rx="3" ry="5"/>
</g>
		<g transform="matrix(1 0 0 1 -29.5 25)" clip-path="url(#CLIPPATH_154)">
<clipPath id="CLIPPATH_154">
	<rect transform="matrix(1 0 0 1 29.5 -25)" id="clip0_1_2633" x="-50" y="-50" rx="0" ry="0" width="100" height="100"/>
</clipPath>
<ellipse style="stroke: none; stroke-width: 1; stroke-dasharray: none; stroke-linecap: butt; stroke-dashoffset: 0; stroke-linejoin: miter; stroke-miterlimit: 4; is-custom-font: none; font-file-url: none; fill: rgb(230,229,195); fill-rule: nonzero; opacity: 1;" cx="0" cy="0" rx="5.5" ry="4"/>
</g>
		<g transform="matrix(1 0 0 1 36 28)" clip-path="url(#CLIPPATH_155)">
<clipPath id="CLIPPATH_155">
	<rect transform="matrix(1 0 0 1 -36 -28)" id="clip0_1_2633" x="-50" y="-50" rx="0" ry="0" width="100" height="100"/>
</clipPath>
<ellipse style="stroke: none; stroke-width: 1; stroke-dasharray: none; stroke-linecap: butt; stroke-dashoffset: 0; stroke-linejoin: miter; stroke-miterlimit: 4; is-custom-font: none; font-file-url: none; fill: rgb(230,229,195); fill-rule: nonzero; opacity: 1;" cx="0" cy="0" rx="3" ry="5"/>
</g>
		<g transform="matrix(1 0 0 1 21 43)" clip-path="url(#CLIPPATH_156)">
<clipPath id="CLIPPATH_156">
	<rect transform="matrix(1 0 0 1 -21 -43)" id="clip0_1_2633" x="-50" y="-50" rx="0" ry="0" width="100" height="100"/>
</clipPath>
<ellipse style="stroke: none; stroke-width: 1; stroke-dasharray: none; stroke-linecap: butt; stroke-dashoffset: 0; stroke-linejoin: miter; stroke-miterlimit: 4; is-custom-font: none; font-file-url: none; fill: rgb(230,229,195); fill-rule: nonzero; opacity: 1;" cx="0" cy="0" rx="3" ry="5"/>
</g>
		<g transform="matrix(1 0 0 1 -40 36)" clip-path="url(#CLIPPATH_157)">
<clipPath id="CLIPPATH_157">
	<rect transform="matrix(1 0 0 1 40 -36)" id="clip0_1_2633" x="-50" y="-50" rx="0" ry="0" width="100" height="100"/>
</clipPath>
<ellipse style="stroke: none; stroke-width: 1; stroke-dasharray: none; stroke-linecap: butt; stroke-dashoffset: 0; stroke-linejoin: miter; stroke-miterlimit: 4; is-custom-font: none; font-file-url: none; fill: rgb(230,229,195); fill-rule: nonzero; opacity: 1;" cx="0" cy="0" rx="3" ry="5"/>
</g>
		<g transform="matrix(1 0 0 1 42 -40)" clip-path="url(#CLIPPATH_158)">
<clipPath id="CLIPPATH_158">
	<rect transform="matrix(1 0 0 1 -42 40)" id="clip0_1_2633" x="-50" y="-50" rx="0" ry="0" width="100" height="100"/>
</clipPath>
<ellipse style="stroke: none; stroke-width: 1; stroke-dasharray: none; stroke-linecap: butt; stroke-dashoffset: 0; stroke-linejoin: miter; stroke-miterlimit: 4; is-custom-font: none; font-file-url: none; fill: rgb(230,229,195); fill-rule: nonzero; opacity: 1;" cx="0" cy="0" rx="3" ry="5"/>
</g>
		<g transform="matrix(1 0 0 1 -29 -42)" clip-path="url(#CLIPPATH_159)">
<clipPath id="CLIPPATH_159">
	<rect transform="matrix(1 0 0 1 29 42)" id="clip0_1_2633" x="-50" y="-50" rx="0" ry="0" width="100" height="100"/>
</clipPath>
<ellipse style="stroke: none; stroke-width: 1; stroke-dasharray: none; stroke-linecap: butt; stroke-dashoffset: 0; stroke-linejoin: miter; stroke-miterlimit: 4; is-custom-font: none; font-file-url: none; fill: rgb(230,229,195); fill-rule: nonzero; opacity: 1;" cx="0" cy="0" rx="3" ry="5"/>
</g>
		<g transform="matrix(1 0 0 1 0 0)">
<rect style="stroke: rgb(212,183,119); stroke-opacity: 0.25; stroke-width: 0.5; stroke-dasharray: none; stroke-linecap: butt; stroke-dashoffset: 0; stroke-linejoin: miter; stroke-miterlimit: 4; is-custom-font: none; font-file-url: none; fill: none; fill-rule: nonzero; opacity: 1;" x="-49.75" y="-49.75" rx="0" ry="0" width="99.5" height="99.5"/>
</g>
</g>
</g>
</svg>